<?xml version="1.0" encoding="utf-8"?>
<!-- Generator: Adobe Illustrator 24.0.2, SVG Export Plug-In . SVG Version: 6.00 Build 0)  -->
<svg version="1.1" id="Calque_1" xmlns="http://www.w3.org/2000/svg" xmlns:xlink="http://www.w3.org/1999/xlink" x="0px" y="0px"
	 viewBox="0 0 277.2 62.3" style="enable-background:new 0 0 277.2 62.3;" xml:space="preserve">
<style type="text/css">
	.st0{fill:#FFFFFF;}
</style>
<g>
	<path class="st0" d="M24.5,48.2H11.6L9.2,61.4H0L11.6,0.9h12.9l12.2,60.5h-9.6L24.5,48.2z M22.9,39.6l-5-27.1l-4.8,27.1H22.9z"/>
	<path class="st0" d="M52.5,36.6v24.8h-9.4V0.9h14.7c5.2,0,9.2,1.2,12,3.6c3.6,3.1,5.4,7.7,5.4,13.7c0,7.7-2.7,12.9-8.2,15.7
		l8.9,27.4h-9.8l-8-24.8H52.5z M52.5,27.9h3.4c2.6,0,4.4-0.2,5.5-0.7c2.7-1.2,4.1-4,4.1-8.5c0-3.3-0.8-5.7-2.3-7.2
		c-0.9-0.9-2-1.5-3.2-1.7c-1.1-0.2-2.5-0.3-4.1-0.3h-3.4V27.9z"/>
	<path class="st0" d="M100.1,9.5v51.9h-9.4V9.5H78.9V0.9h32.8v8.6H100.1z"/>
	<path class="st0" d="M126.7,0.9v60.5h-9.4V0.9H126.7z"/>
	<path class="st0" d="M145.3,0.9v51.9h18.6v8.6h-28V0.9H145.3z"/>
	<path class="st0" d="M189.5,37.8v23.6h-9.4V37.8L166.6,0.9h10.3l8.1,25.6l8.4-25.6h10.2L189.5,37.8z"/>
	<path class="st0" d="M241.4,15.1l-9,2.7c-1.4-6-4.1-9-8.1-9c-1.7,0-3.1,0.6-4.3,1.7c-1.2,1.2-1.8,2.7-1.8,4.5
		c0,2.2,0.8,4.2,2.5,6.1c1.1,1.2,3.8,3.4,8,6.6c4.3,3.4,7.4,6.1,9,8.1c2.6,3.2,3.9,6.9,3.9,11.1c0,4.5-1.5,8.1-4.5,11
		c-3,2.9-7.1,4.4-12.1,4.4c-10.3,0-16.5-5.7-18.4-17l9-2.6c1.2,7.2,4.4,10.9,9.4,10.9c2.1,0,3.8-0.6,5.1-2c1.2-1.3,1.9-2.9,1.9-5
		c0-2.1-0.8-4.1-2.3-5.9c-1.3-1.5-3.5-3.5-6.6-5.9c-4.6-3.5-7.3-5.8-8.2-6.6c-4.2-4-6.3-8.5-6.3-13.3c0-4.8,1.7-8.5,5.1-11.3
		c2.9-2.4,6.4-3.6,10.7-3.6C233.2,0,238.8,5,241.4,15.1z"/>
	<path class="st0" d="M265.5,9.5v51.9h-9.4V9.5h-11.7V0.9h32.8v8.6H265.5z"/>
</g>
</svg>
